<?xml version="1.0" encoding="UTF-8" standalone="no"?>
<!-- Created with Inkscape (http://www.inkscape.org/) -->

<svg
   width="507.22833"
   height="507.22791"
   viewBox="0 0 507.22833 507.22791"
   version="1.1"
   id="svg5"
   xml:space="preserve"
   inkscape:export-filename="np-logo-2.png"
   inkscape:export-xdpi="96"
   inkscape:export-ydpi="96"
   xmlns:inkscape="http://www.inkscape.org/namespaces/inkscape"
   xmlns:sodipodi="http://sodipodi.sourceforge.net/DTD/sodipodi-0.dtd"
   xmlns="http://www.w3.org/2000/svg"
   xmlns:svg="http://www.w3.org/2000/svg"><sodipodi:namedview
     id="namedview7"
     pagecolor="#505050"
     bordercolor="#eeeeee"
     borderopacity="1"
     inkscape:showpageshadow="0"
     inkscape:pageopacity="0"
     inkscape:pagecheckerboard="0"
     inkscape:deskcolor="#505050"
     inkscape:document-units="px"
     showgrid="true"><inkscape:grid
       type="xygrid"
       id="grid132"
       enabled="true" /></sodipodi:namedview><defs
     id="defs2"><inkscape:path-effect
       effect="bspline"
       id="path-effect20715"
       is_visible="true"
       lpeversion="1"
       weight="33.333333"
       steps="2"
       helper_size="0"
       apply_no_weight="true"
       apply_with_weight="true"
       only_selected="false" /><inkscape:path-effect
       effect="bspline"
       id="path-effect20711"
       is_visible="true"
       lpeversion="1"
       weight="33.333333"
       steps="2"
       helper_size="0"
       apply_no_weight="true"
       apply_with_weight="true"
       only_selected="false" /><inkscape:path-effect
       effect="bspline"
       id="path-effect17795"
       is_visible="true"
       lpeversion="1"
       weight="33.333333"
       steps="2"
       helper_size="0"
       apply_no_weight="true"
       apply_with_weight="true"
       only_selected="false" /><inkscape:path-effect
       effect="bspline"
       id="path-effect17791"
       is_visible="true"
       lpeversion="1"
       weight="33.333333"
       steps="2"
       helper_size="0"
       apply_no_weight="true"
       apply_with_weight="true"
       only_selected="false" /><inkscape:path-effect
       effect="bspline"
       id="path-effect8329"
       is_visible="true"
       lpeversion="1"
       weight="33.333333"
       steps="2"
       helper_size="0"
       apply_no_weight="true"
       apply_with_weight="true"
       only_selected="false" /><inkscape:path-effect
       effect="bspline"
       id="path-effect7599"
       is_visible="true"
       lpeversion="1"
       weight="33.333333"
       steps="2"
       helper_size="0"
       apply_no_weight="true"
       apply_with_weight="true"
       only_selected="false" /><inkscape:path-effect
       effect="bspline"
       id="path-effect6869"
       is_visible="true"
       lpeversion="1"
       weight="33.333333"
       steps="2"
       helper_size="0"
       apply_no_weight="true"
       apply_with_weight="true"
       only_selected="false" /><inkscape:path-effect
       effect="bspline"
       id="path-effect6139"
       is_visible="true"
       lpeversion="1"
       weight="33.333333"
       steps="2"
       helper_size="0"
       apply_no_weight="true"
       apply_with_weight="true"
       only_selected="false" /><inkscape:path-effect
       effect="bspline"
       id="path-effect6135"
       is_visible="true"
       lpeversion="1"
       weight="33.333333"
       steps="2"
       helper_size="0"
       apply_no_weight="true"
       apply_with_weight="true"
       only_selected="false" /></defs><g
     inkscape:label="Layer 1"
     inkscape:groupmode="layer"
     id="layer1"
     transform="translate(-1.4528173,-1.310932)"><path
       style="fill:none;stroke:#000000;stroke-width:3.70709;stroke-linecap:round;stroke-linejoin:round;stroke-dasharray:none"
       d="m 128.30975,128.16747 c 63.38454,-63.384532 190.14513,-63.384532 253.52123,0.001 63.3761,63.3858 63.3761,190.14391 -0.001,253.52 -63.37737,63.37609 -190.13541,63.37609 -253.51995,-0.001 -63.384547,-63.37737 -63.38455,-190.13544 -2e-5,-253.51998 z"
       id="path6133"
       inkscape:original-d="m 64.925216,64.782938 c 126.769074,0.008 253.529664,0.008 380.281864,0 0.009,126.771592 0.009,253.529702 0,380.281882 -126.75473,0.009 -253.51277,0.009 -380.281853,0 0.009,-126.75474 0.009,-253.51281 -1.1e-5,-380.281882 z"
       inkscape:path-effect="#path-effect6135" /><path
       style="fill:none;stroke:#000000;stroke-width:3.70709;stroke-linecap:round;stroke-linejoin:round;stroke-dasharray:none"
       d="M 100.14068,99.998431 C 177.60971,22.529411 332.5394,22.529411 410,100 c 77.46059,77.47059 77.46059,232.39717 -0.002,309.85775 -77.46213,77.46058 -232.38873,77.46058 -309.85777,-0.002 -77.469044,-77.46215 -77.469044,-232.38874 -1e-5,-309.857759 z"
       id="path6137"
       inkscape:original-d="m 22.671646,22.529411 c 154.938064,0.008 309.867754,0.008 464.788944,0 0.009,154.941179 0.009,309.867759 0,464.788919 -154.92426,0.009 -309.85086,0.009 -464.788944,0 0.0086,-154.92429 0.0086,-309.85088 0,-464.788919 z"
       inkscape:path-effect="#path-effect6139" /><path
       style="fill:none;stroke:#000000;stroke-width:3.70709;stroke-linecap:round;stroke-linejoin:round;stroke-dasharray:none"
       d="m 71.971687,71.829434 c 91.553553,-91.553576 274.652223,-91.553576 366.197343,0.0018 91.54512,91.555391 91.54512,274.650391 -0.002,366.195501 -91.54695,91.54511 -274.64195,91.54511 -366.195503,-0.002 -91.553553,-91.54693 -91.553553,-274.64192 0,-366.195496 z"
       id="path6867"
       inkscape:original-d="m -19.581866,-19.724142 c 183.107106,0.008 366.205776,0.008 549.296016,0 0.009,183.110782 0.009,366.205782 0,549.296002 -183.09391,0.009 -366.18891,0.009 -549.296016,0 0.0086,-183.09386 0.0086,-366.18885 0,-549.296002 z"
       inkscape:path-effect="#path-effect6869" /><path
       style="fill:none;stroke:#000000;stroke-width:3.70709;stroke-linecap:round;stroke-linejoin:round;stroke-dasharray:none"
       d="m 191.74774,460.04685 c 0.094,-13.50924 0.18803,-27.02689 0.28214,-40.55298"
       id="path7597"
       sodipodi:nodetypes="cc"
       inkscape:original-d="m 191.74774,460.04685 c 0.10237,-13.50918 0.19688,-27.02683 0.28214,-40.55298"
       inkscape:path-effect="#path-effect7599" /><path
       style="fill:none;stroke:#000000;stroke-width:3.70709;stroke-linecap:round;stroke-linejoin:round;stroke-dasharray:none"
       d="m 318.52388,49.836376 c -0.11115,13.523459 -0.22224,27.038535 -0.33326,40.545538"
       id="path8327"
       sodipodi:nodetypes="cc"
       inkscape:original-d="m 318.52388,49.836376 c -0.10751,13.523489 -0.21825,27.038568 -0.33326,40.545538"
       inkscape:path-effect="#path-effect8329" /><path
       style="fill:none;stroke:#000000;stroke-width:3.70709;stroke-linecap:round;stroke-linejoin:round;stroke-dasharray:none"
       d="m 49.913276,318.12799 c 13.564111,0.031 27.119501,0.0621 40.666679,0.0931"
       id="path17789"
       sodipodi:nodetypes="cc"
       inkscape:original-d="m 49.913276,318.12799 c 13.564085,0.0422 27.119489,0.0675 40.666679,0.0931"
       inkscape:path-effect="#path-effect17791" /><path
       style="fill:none;stroke:#000000;stroke-width:3.70709;stroke-linecap:round;stroke-linejoin:round;stroke-dasharray:none"
       d="m 420.05011,193.18367 c 13.3754,-0.5739 26.74276,-1.14745 40.10201,-1.72066"
       id="path17793"
       sodipodi:nodetypes="cc"
       inkscape:original-d="m 420.05011,193.18367 c 13.37577,-0.56534 26.74314,-1.13864 40.10201,-1.72066"
       inkscape:path-effect="#path-effect17795" /><path
       style="fill:none;stroke:#000000;stroke-width:3.70709;stroke-linecap:round;stroke-linejoin:round;stroke-dasharray:none"
       d="m 71.971745,71.829392 c 0,0 28.168945,28.169005 28.168945,28.169005"
       id="path20709"
       sodipodi:nodetypes="cc"
       inkscape:original-d="M 71.971745,71.829392 100.14069,99.998397"
       inkscape:path-effect="#path-effect20711" /><path
       style="fill:none;stroke:#000000;stroke-width:3.70709;stroke-linecap:round;stroke-linejoin:round;stroke-dasharray:none"
       d="m 409.99844,409.85769 c 0,0 28.16872,28.16903 28.16872,28.16903"
       id="path20713"
       sodipodi:nodetypes="cc"
       inkscape:original-d="m 409.99844,409.85769 28.16872,28.16903"
       inkscape:path-effect="#path-effect20715" /><path
       style="fill:#eebc45;fill-opacity:1;stroke:none;stroke-width:0.455674"
       d="m 183.56045,455.56604 c -16.34866,-5.0434 -29.82741,-10.69847 -42.83349,-17.97089 -42.373525,-23.69357 -71.035295,-60.66602 -86.373941,-111.41881 -0.979814,-3.2421 -1.73025,-5.94597 -1.667558,-6.00865 0.06283,-0.0628 8.272734,0.0267 18.244554,0.19872 l 18.13059,0.31287 2.70367,7.06297 c 3.24297,8.47194 10.163575,22.51703 14.429345,29.2841 18.15013,28.79223 43.24533,48.82409 77.17879,61.60681 3.61215,1.36072 6.51625,2.58749 6.4536,2.72617 -0.0628,0.13868 -0.11376,8.24923 -0.11376,18.02348 0,13.92441 -0.1234,17.76683 -0.5696,17.75048 -0.31326,-0.0101 -2.82519,-0.71668 -5.58203,-1.56713 z"
       id="path26690" /><path
       style="fill:#eebc45;fill-opacity:1;stroke:none;stroke-width:1.48074"
       d="m 419.29237,182.97387 c -10.88955,-29.0092 -28.12462,-52.49688 -51.38063,-70.02084 -11.27013,-8.49229 -34.241,-20.745887 -42.99948,-22.937705 l -4.07202,-1.019022 V 71.387979 c 0,-9.735401 0.60928,-17.60832 1.36272,-17.60832 3.74107,0 29.16168,10.032199 41.5786,16.408931 42.25612,21.700646 72.62597,57.77201 88.71528,105.37037 l 4.27801,12.65611 -4.48079,0.89616 c -2.46441,0.49286 -10.30391,0.89614 -17.42109,0.89614 h -12.94038 z"
       id="path31678" /><path
       style="fill:#e5e4ea;fill-opacity:1;stroke:none;stroke-width:1.61972"
       d="m 226.01634,463.67234 c -6.28389,-0.73414 -15.75926,-2.29495 -21.05631,-3.46845 l -9.63111,-2.13362 -0.46166,-17.57281 c -0.40141,-15.27668 -0.13564,-17.44769 2.03309,-16.61542 1.37215,0.52651 8.50423,2.25427 15.84903,3.83944 16.90392,3.64815 64.30611,4.01872 81.38232,0.63617 40.59428,-8.04117 74.8953,-26.91377 97.68623,-53.74756 12.99297,-15.29769 27.79231,-44.78058 33.34625,-66.43138 8.16785,-31.84077 8.63139,-72.59689 1.16026,-102.01617 l -2.85133,-11.22788 h 17.39575 17.39568 l 1.64481,7.69369 c 6.28375,29.39281 6.48136,73.92475 0.45299,102.0937 -15.25957,71.3042 -53.27114,118.53262 -115.64233,143.68272 -34.88914,14.06841 -79.66939,19.82806 -118.70367,15.26757 z"
       id="path41478" /><path
       style="fill:#e5e4ea;fill-opacity:1;stroke:none;stroke-width:1.61972"
       d="M 50.545416,308.71983 C 44.746742,286.19189 43.546716,241.21231 48.038907,214.76707 65.046513,114.6433 130.7883,54.996569 234.48599,45.605832 c 22.26731,-2.016504 49.13187,-0.508167 70.98372,3.985434 l 9.7183,1.998448 0.45979,17.411959 c 0.25267,9.576599 0.12815,17.411966 -0.27695,17.411966 -0.40517,0 -7.17195,-1.604877 -15.03715,-3.566409 -11.99673,-2.991888 -18.99706,-3.578986 -43.45534,-3.644377 -31.75948,-0.085 -42.50595,1.39345 -66.40844,9.135585 -57.7996,18.721612 -94.360705,60.786532 -108.134635,124.413162 -5.82901,26.92617 -4.47268,70.64793 3.05245,98.39778 0.97948,3.61195 0.83584,3.64441 -16.14524,3.64441 H 52.108969 Z"
       id="path45758" /><path
       style="fill:#0b8965;fill-opacity:1;stroke:none;stroke-width:1.01578"
       d="m 425.67969,422.50276 -12.3298,-12.49531 7.11586,-8.12627 c 19.81724,-22.63139 36.31284,-56.87439 43.79459,-90.91293 7.72467,-35.14372 7.79311,-76.02078 0.18617,-111.20451 C 444.40327,107.05971 378.15539,50.453339 278.22937,40.64806 263.74108,39.226402 231.6388,40.040419 218.0917,42.172988 173.29621,49.224648 138.59017,64.077292 108.89462,88.90446 L 99.752545,96.547763 87.598275,84.433057 75.443995,72.318353 78.456165,69.14349 C 92.615325,54.219497 124.99725,34.353734 151.91217,24.079446 243.07154,-10.71899 355.04331,4.7419898 423.11615,61.527112 c 70.73908,59.009228 99.30782,171.983638 69.7043,275.643698 -10.18721,35.67162 -27.09496,66.59025 -51.38515,93.96609 l -3.42589,3.8611 z"
       id="path53502" /><path
       style="fill:#616266;fill-opacity:1;stroke:none;stroke-width:1.31344"
       d="m 234.67446,503.61218 c -2.52839,-0.29545 -10.21209,-1.17666 -17.07484,-1.95832 C 168.60506,496.07345 118.895,475.30794 84.817745,446.1865 49.096242,415.66 22.87919,368.32547 12.086283,314.87075 7.538368,292.34605 6.156935,278.3241 6.144541,254.55952 6.10736,187.08588 27.792976,125.14724 66.978984,80.788176 l 4.641101,-5.253823 11.91426,11.793709 c 6.55278,6.486511 11.91417,12.310208 11.91417,12.941518 0,0.63135 -2.67901,4.12754 -5.9533,7.76938 -7.87213,8.75568 -18.7328,25.31055 -25.511658,38.88726 -42.681699,85.48292 -27.514749,202.69594 34.180148,264.15073 57.010655,56.78881 155.855055,75.01549 242.243665,44.66911 21.71106,-7.62664 45.00523,-21.1683 64.77662,-37.65683 l 5.03204,-4.1965 12.18163,12.2325 12.18163,12.23248 -9.65256,8.15969 c -33.54918,28.36039 -78.09087,47.44542 -127.46453,54.61544 -13.3104,1.93292 -53.78502,3.53117 -62.78774,2.47934 z"
       id="path54968" /><text
       xml:space="preserve"
       style="font-size:286.695px;font-family:Cantarell;-inkscape-font-specification:Cantarell;fill:#000000;fill-opacity:1;stroke:#000000;stroke-width:1.1199;stroke-linecap:round;stroke-linejoin:round;stroke-dasharray:none"
       x="260"
       y="350"
       id="text60202"><tspan
         sodipodi:role="line"
         id="tspan60200"
         x="260"
         y="350"
         style="font-style:italic;font-variant:normal;font-weight:normal;font-stretch:normal;font-size:286.695px;font-family:monospace;-inkscape-font-specification:'monospace Italic';text-align:center;text-anchor:middle;fill:#ffffff;fill-opacity:1;stroke:#ffffff;stroke-width:1.1199;stroke-opacity:1"
         dx="0 -77.800003">nP</tspan></text><path
       style="fill:#1a1a1a;fill-opacity:1;stroke:none;stroke-width:0.630726"
       d="M 246.61395,426.92464 C 198.86873,424.39375 157.82257,407.90106 129.90358,380.02943 86.64243,336.84166 71.16175,259.41529 92.523633,193.07424 c 8.509057,-26.42556 21.075407,-47.25753 39.068697,-64.76645 24.04136,-23.39418 56.79444,-38.208367 97.04592,-43.893781 11.4588,-1.618523 41.24231,-1.629634 52.66564,-0.01965 35.54525,5.009697 65.10579,17.050051 88.61704,36.094751 29.67288,24.03578 49.34555,62.1189 55.54101,107.51842 1.35974,9.96408 1.8828,33.61012 0.97709,44.17211 -2.76711,32.26871 -12.87771,62.77007 -28.63599,86.38821 -28.08002,42.0857 -77.57747,66.5984 -137.94384,68.31417 -5.03004,0.14297 -10.9904,0.16215 -13.24525,0.0426 z m -81.99441,-76.22438 c 0,-2.1499 18.74421,-95.68907 19.9365,-99.48903 3.67915,-11.7259 8.93797,-20.59323 16.27841,-27.4484 2.55287,-2.3841 6.35806,-5.24959 8.45596,-6.36776 11.22472,-5.98271 27.16759,-6.02362 35.35771,-0.0907 3.11154,2.25399 6.38091,7.09268 6.38091,9.4438 0,0.90601 -5.25052,28.59451 -11.66783,61.53001 -6.4173,32.9355 -11.6681,60.52133 -11.66843,61.30186 l -6.1e-4,1.41913 h 15.40053 15.40053 l 0.63896,-2.99595 c 0.35142,-1.64777 3.93727,-20.02556 7.96855,-40.83952 4.03128,-20.81397 7.47614,-38.34027 7.65525,-38.94735 0.2987,-1.0124 1.61432,-1.10423 15.89363,-1.10931 18.53678,-0.007 30.79196,-0.80205 39.46931,-2.56189 39.39713,-7.99004 61.61582,-36.05963 60.12511,-75.95798 -0.26294,-7.03739 -0.67067,-9.98267 -2.00823,-14.5067 -4.97694,-16.83342 -16.8244,-27.12328 -36.854,-32.00875 -5.15092,-1.25638 -7.41552,-1.33637 -44.292,-1.56452 l -38.86354,-0.24044 -4.47554,22.89876 c -2.46156,12.5943 -4.6683,24.13039 -4.90389,25.63572 -0.37147,2.3736 -0.60486,2.69546 -1.75785,2.42426 -8.40572,-1.97719 -11.02242,-2.32244 -17.79881,-2.34844 -16.39177,-0.0629 -28.78412,5.29421 -41.71518,18.03306 -3.20882,3.16114 -5.83177,5.58245 -5.82877,5.38071 0.003,-0.20174 0.82988,-4.62013 1.83752,-9.81867 1.00764,-5.19852 1.69801,-9.66879 1.53415,-9.93393 -0.40726,-0.65896 -26.55755,-0.61473 -26.96566,0.0456 -0.47397,0.7669 -30.65391,155.35615 -30.65391,157.01703 v 1.39831 h 13.56061 c 7.45834,0 13.56061,-0.1345 13.56061,-0.29888 z"
       id="path70083" /><path
       style="fill:#1a1a1a;fill-opacity:1;stroke:none;stroke-width:0.630726"
       d="m 279.76377,238.25683 c 0.19969,-1.99467 3.38258,-19.30811 7.07308,-38.4743 l 6.71001,-34.84762 17.05771,0.005 c 9.38173,0.003 19.56837,0.29281 22.63697,0.64437 13.59499,1.55755 21.47867,6.83795 25.141,16.83915 1.9143,5.22766 1.90706,18.52931 -0.0139,25.58153 -3.88505,14.26257 -14.15978,25.61588 -27.59613,30.49301 -7.69842,2.79438 -13.48681,3.38536 -33.15782,3.38536 h -18.21396 z"
       id="path70085" /></g></svg>
