<?xml version="1.0" encoding="UTF-8" standalone="no"?>
<!-- Created with Inkscape (http://www.inkscape.org/) -->

<svg
   width="365.31482"
   height="235.43002"
   viewBox="0 0 365.31482 235.43002"
   version="1.1"
   id="svg5"
   xml:space="preserve"
   sodipodi:docname="hoodiemoder-banner2.svg"
   xmlns:inkscape="http://www.inkscape.org/namespaces/inkscape"
   xmlns:sodipodi="http://sodipodi.sourceforge.net/DTD/sodipodi-0.dtd"
   xmlns="http://www.w3.org/2000/svg"
   xmlns:svg="http://www.w3.org/2000/svg"><sodipodi:namedview
     id="namedview103"
     pagecolor="#ffffff"
     bordercolor="#000000"
     borderopacity="0.25"
     inkscape:showpageshadow="2"
     inkscape:pageopacity="0.0"
     inkscape:pagecheckerboard="0"
     inkscape:deskcolor="#d1d1d1"
     showgrid="false" /><defs
     id="defs2" /><g
     id="g476"
     transform="translate(-1050.0326,379.0827)"><path
       style="fill:#5bcefb;fill-opacity:0.980392;stroke:#5bcefa;stroke-width:1.79149;stroke-linecap:round;stroke-linejoin:round;stroke-dasharray:none;stroke-opacity:0.980392"
       d="m 1297.8119,-227.13271 c -32.4111,-18.49267 -54.8557,-29.25803 -76.3401,-36.61577 -40.0895,-13.72941 -79.5788,-16.5208 -159.991,-11.30934 -3.1584,0.2047 -5.9343,0.29906 -6.1688,0.20972 -0.8528,-0.32496 0.628,-8.86022 2.9556,-17.03553 1.9752,-6.93759 7.145,-18.89283 10.8752,-25.14944 19.6766,-33.00261 53.6962,-54.7805 89.6692,-57.40249 43.1095,-3.14213 90.9815,20.71073 159.1417,79.29448 12.0204,10.33151 30.6494,27.32101 30.4238,27.74623 -0.4682,0.88235 -42.8052,43.91882 -43.4474,44.16511 -0.091,0.035 -3.2945,-1.7213 -7.1182,-3.90297 z m -163.3851,-88.46642 c 7.3563,-6.57405 7.3992,-18.44387 0.091,-25.25389 -5.2702,-4.91112 -13.7916,-5.84085 -19.96,-2.17778 -13.9659,8.2936 -10.119,28.9706 5.8822,31.6162 4.6622,0.77084 10.3436,-0.92897 13.9866,-4.18453 z"
       id="path7341-3-5-1-8-4" /><path
       style="fill:none;fill-opacity:0.980392;stroke:#ffffff;stroke-width:4.0909;stroke-linecap:round;stroke-linejoin:round;stroke-miterlimit:0;stroke-dasharray:none;stroke-opacity:1"
       d="m 1411.7458,-329.04302 c -19.7539,20.27226 -39.5195,40.55662 -79.0514,81.12605 -39.532,40.56943 -98.8279,101.42149 -158.9035,102.21101 -60.0755,0.78952 -120.9275,-58.50635 -121.7052,-118.59413 -0.7776,-60.08778 58.5182,-120.93985 128.7365,-111.82227 70.2183,9.11759 151.3543,88.17873 232.4798,167.22958"
       id="path2031-9-2-1-5-6" /><path
       style="fill:#000000;fill-opacity:0.980392;stroke:#ffffff;stroke-width:4.0909;stroke-linecap:round;stroke-linejoin:round;stroke-miterlimit:0;stroke-dasharray:none;stroke-opacity:1"
       d="m 1053.1218,-272.2972 c 48.4422,-2.95988 96.8823,-5.91965 138.8988,2.74899 42.0164,8.66865 77.6058,28.96438 113.1948,49.25995"
       id="path8756-7-0-07-7-3" /><path
       style="fill:#000000;fill-opacity:0.980392;stroke:#ffffff;stroke-width:4.0909;stroke-linecap:round;stroke-linejoin:round;stroke-miterlimit:0;stroke-dasharray:none;stroke-opacity:1"
       d="m 1058.5171,-230.8141 c 10.1941,-8.19216 20.3875,-16.38386 34.3784,-23.74922 13.9909,-7.36535 31.1591,-13.92463 48.9453,-20.46285"
       id="path8764-0-9-0-6-8"
       sodipodi:nodetypes="csc" /><circle
       style="fill:#000000;fill-opacity:0.980392;stroke:#ffffff;stroke-width:3.27273;stroke-dasharray:none;stroke-opacity:1"
       id="path11872-9-94-8-3-60"
       r="15.237356"
       cy="95.644669"
       cx="1166.0577"
       transform="rotate(-20.983721)" /><path
       style="fill:#f5a9b8;fill-opacity:1;stroke:#f5a9b8;stroke-width:1.79149;stroke-dasharray:none;stroke-opacity:1"
       d="m 1201.9127,-152.48032 c -0.6894,0.17586 -2.8589,0.74707 -4.821,1.26929 -18.5101,4.92637 -37.5733,4.12214 -56.5845,-2.38716 -28.3628,-9.71128 -54.7519,-31.63389 -70.6183,-58.66585 -3.3063,-5.63317 -5.9773,-10.94759 -7.5101,-14.94286 -1.2793,-3.33447 -1.9074,-2.39952 5.439,-8.09652 18.1985,-14.11264 28.9324,-19.85803 57.825,-30.95128 l 16.9638,-6.51319 4.2789,0.20386 c 51.7675,2.46631 84.6564,13.22489 145.5011,47.59606 4.7408,2.6781 8.6659,4.98992 8.7225,5.13736 0.2697,0.70314 -18.3584,17.51936 -29.4972,26.62814 -16.1877,13.23757 -30.2705,22.7667 -45.2628,30.62728 -4.1651,2.18374 -21.5047,9.34689 -24.4364,10.09489 z"
       id="path7483-6-1-6-3-8" /><path
       style="fill:#ffffff;fill-opacity:1;stroke:#ffffff;stroke-width:1.79149;stroke-dasharray:none;stroke-opacity:1"
       d="m 1059.2678,-235.13282 c -0.4067,-1.06806 -1.724,-5.65141 -2.2693,-7.89587 -1.547,-6.36733 -2.5018,-13.14609 -2.7186,-19.30036 -0.082,-2.33108 -0.025,-7.52056 0.085,-7.77176 0.035,-0.0801 2.7504,-0.30648 6.0342,-0.50323 31.4057,-1.88179 48.5461,-2.5449 65.6512,-2.53983 l 5.0982,0.002 -11.561,4.53869 c -11.2265,4.40731 -14.1634,5.64028 -20.3983,8.56351 -11.7185,5.49423 -21.1496,11.31591 -32.5591,20.09845 -2.3957,1.84413 -6.4844,5.0699 -6.8993,5.44316 -0.1243,0.11187 -0.2382,-0.0442 -0.463,-0.63428 z"
       id="path7485-0-0-4-2-8" /><path
       style="fill:none;stroke:#ffffff;stroke-width:4.03837;stroke-linecap:round;stroke-linejoin:round;stroke-dasharray:none"
       d="m 1413.302,-208.89278 c -3.2444,-22.00032 -6.4889,-44.00082 -6.7483,-64.02642 -0.2595,-20.02558 2.4663,-38.07437 5.1921,-56.12382"
       id="path963-6-3-1-0-89" /><path
       style="fill:#5bcefc;fill-opacity:0.980392;stroke:#5bcefa;stroke-width:1.61535;stroke-dasharray:none;stroke-opacity:0.980392"
       d="m 1405.1101,-219.87438 c -17.623,-17.17404 -42.2037,-40.70579 -48.9341,-46.84573 l -1.1445,-1.04405 7.8517,-8.05094 c 4.3185,-4.42802 16.2593,-16.68561 26.5351,-27.23907 10.2759,-10.55347 18.8011,-19.27808 18.9449,-19.38804 0.171,-0.13061 0,1.66842 -0.4982,5.19109 -3.4781,24.6769 -4.1725,39.95834 -2.7159,59.76506 0.7099,9.65264 2.4006,23.94392 4.6156,39.01365 0.2482,1.68849 0.4188,3.15178 0.3792,3.25174 -0.04,0.1 -2.3048,-1.99421 -5.0338,-4.65371 z"
       id="path1085-2-7-4-9-7" /></g></svg>
