<?xml version="1.0" encoding="UTF-8" standalone="no"?>
<!-- Created with Inkscape (http://www.inkscape.org/) -->

<svg
   width="382.04727mm"
   height="384.1955mm"
   viewBox="0 0 382.04727 384.1955"
   version="1.1"
   id="svg5"
   inkscape:version="1.2.2 (b0a8486541, 2022-12-01)"
   sodipodi:docname="circles.svg"
   xmlns:inkscape="http://www.inkscape.org/namespaces/inkscape"
   xmlns:sodipodi="http://sodipodi.sourceforge.net/DTD/sodipodi-0.dtd"
   xmlns="http://www.w3.org/2000/svg"
   xmlns:svg="http://www.w3.org/2000/svg">
  <sodipodi:namedview
     id="namedview7"
     pagecolor="#ffffff"
     bordercolor="#eeeeee"
     borderopacity="1"
     inkscape:showpageshadow="0"
     inkscape:pageopacity="0"
     inkscape:pagecheckerboard="0"
     inkscape:deskcolor="#ffffff"
     inkscape:document-units="mm"
     showgrid="false"
     inkscape:zoom="0.090316684"
     inkscape:cx="957.74109"
     inkscape:cy="3255.2125"
     inkscape:window-width="1920"
     inkscape:window-height="1011"
     inkscape:window-x="0"
     inkscape:window-y="32"
     inkscape:window-maximized="1"
     inkscape:current-layer="layer1" />
  <defs
     id="defs2">
    <linearGradient
       id="linearGradient4121"
       inkscape:swatch="solid">
      <stop
         style="stop-color:#040404;stop-opacity:1;"
         offset="0"
         id="stop4119" />
    </linearGradient>
    <inkscape:path-effect
       effect="bspline"
       id="path-effect4707-8"
       is_visible="true"
       lpeversion="1"
       weight="33.333333"
       steps="2"
       helper_size="0"
       apply_no_weight="true"
       apply_with_weight="true"
       only_selected="false" />
    <inkscape:path-effect
       effect="bspline"
       id="path-effect4707-8-0"
       is_visible="true"
       lpeversion="1"
       weight="33.333333"
       steps="2"
       helper_size="0"
       apply_no_weight="true"
       apply_with_weight="true"
       only_selected="false" />
    <inkscape:path-effect
       effect="bspline"
       id="path-effect4707-8-04"
       is_visible="true"
       lpeversion="1"
       weight="33.333333"
       steps="2"
       helper_size="0"
       apply_no_weight="true"
       apply_with_weight="true"
       only_selected="false" />
    <inkscape:path-effect
       effect="bspline"
       id="path-effect4707-8-0-4"
       is_visible="true"
       lpeversion="1"
       weight="33.333333"
       steps="2"
       helper_size="0"
       apply_no_weight="true"
       apply_with_weight="true"
       only_selected="false" />
    <inkscape:path-effect
       effect="bspline"
       id="path-effect4707-8-7"
       is_visible="true"
       lpeversion="1"
       weight="33.333333"
       steps="2"
       helper_size="0"
       apply_no_weight="true"
       apply_with_weight="true"
       only_selected="false" />
    <inkscape:path-effect
       effect="bspline"
       id="path-effect4707-8-0-6"
       is_visible="true"
       lpeversion="1"
       weight="33.333333"
       steps="2"
       helper_size="0"
       apply_no_weight="true"
       apply_with_weight="true"
       only_selected="false" />
    <inkscape:path-effect
       effect="bspline"
       id="path-effect4707-8-04-3"
       is_visible="true"
       lpeversion="1"
       weight="33.333333"
       steps="2"
       helper_size="0"
       apply_no_weight="true"
       apply_with_weight="true"
       only_selected="false" />
    <inkscape:path-effect
       effect="bspline"
       id="path-effect4707-8-0-4-1"
       is_visible="true"
       lpeversion="1"
       weight="33.333333"
       steps="2"
       helper_size="0"
       apply_no_weight="true"
       apply_with_weight="true"
       only_selected="false" />
    <inkscape:path-effect
       effect="bspline"
       id="path-effect4707-8-00"
       is_visible="true"
       lpeversion="1"
       weight="33.333333"
       steps="2"
       helper_size="0"
       apply_no_weight="true"
       apply_with_weight="true"
       only_selected="false" />
    <inkscape:path-effect
       effect="bspline"
       id="path-effect4707-8-0-46"
       is_visible="true"
       lpeversion="1"
       weight="33.333333"
       steps="2"
       helper_size="0"
       apply_no_weight="true"
       apply_with_weight="true"
       only_selected="false" />
    <inkscape:path-effect
       effect="bspline"
       id="path-effect4707-8-04-2"
       is_visible="true"
       lpeversion="1"
       weight="33.333333"
       steps="2"
       helper_size="0"
       apply_no_weight="true"
       apply_with_weight="true"
       only_selected="false" />
    <inkscape:path-effect
       effect="bspline"
       id="path-effect4707-8-0-4-6"
       is_visible="true"
       lpeversion="1"
       weight="33.333333"
       steps="2"
       helper_size="0"
       apply_no_weight="true"
       apply_with_weight="true"
       only_selected="false" />
    <inkscape:path-effect
       effect="bspline"
       id="path-effect4707-8-7-7"
       is_visible="true"
       lpeversion="1"
       weight="33.333333"
       steps="2"
       helper_size="0"
       apply_no_weight="true"
       apply_with_weight="true"
       only_selected="false" />
    <inkscape:path-effect
       effect="bspline"
       id="path-effect4707-8-0-6-5"
       is_visible="true"
       lpeversion="1"
       weight="33.333333"
       steps="2"
       helper_size="0"
       apply_no_weight="true"
       apply_with_weight="true"
       only_selected="false" />
    <inkscape:path-effect
       effect="bspline"
       id="path-effect4707-8-04-3-6"
       is_visible="true"
       lpeversion="1"
       weight="33.333333"
       steps="2"
       helper_size="0"
       apply_no_weight="true"
       apply_with_weight="true"
       only_selected="false" />
    <inkscape:path-effect
       effect="bspline"
       id="path-effect4707-8-0-4-1-9"
       is_visible="true"
       lpeversion="1"
       weight="33.333333"
       steps="2"
       helper_size="0"
       apply_no_weight="true"
       apply_with_weight="true"
       only_selected="false" />
  </defs>
  <g
     inkscape:label="Layer 1"
     inkscape:groupmode="layer"
     id="layer1"
     transform="translate(-383.84165,14.765638)">
    <path
       style="fill:none;fill-rule:evenodd;stroke:#040404;stroke-width:4.61599;stroke-dasharray:none;stroke-opacity:1"
       d="m 478.00794,209.29995 c 6.54528,12.38361 19.63562,37.15045 15.82437,56.03807 -3.81126,18.88761 -24.52295,31.89607 -22.19199,40.40452 2.33097,8.50845 27.70345,12.5164 43.70965,26.92914 16.0062,14.41273 22.64544,39.22871 31.35131,40.65765 8.70587,1.42894 19.47805,-20.52875 37.86314,-26.29197 18.38509,-5.76322 44.38122,4.66815 50.83463,-2.49924 6.45342,-7.16739 -6.63593,-31.93327 -2.82385,-50.8187 3.81208,-18.88542 24.52546,-31.88879 22.19421,-40.39785 -2.33126,-8.50907 -27.70729,-12.52352 -43.71454,-26.93827 -16.00724,-14.41474 -22.64492,-39.22912 -31.35044,-40.65731 -8.70552,-1.4282 -19.47805,20.52986 -37.86289,26.29268 -18.38484,5.76283 -44.38146,-4.66928 -57.38031,-9.88556 -12.99885,-5.21627 -12.99856,-5.21677 -6.45329,7.16684 z"
       id="path4705-1-3-4-8"
       inkscape:original-d="m 471.46267,196.91634 c 13.0906,24.76719 26.1809,49.53406 39.27092,74.3003 -20.71223,13.00949 -41.42391,26.01796 -62.13632,39.02615 25.37401,4.00825 50.74643,8.0166 76.11925,12.02415 6.63905,24.81763 13.27903,49.63341 19.91818,74.44958 10.77284,-21.95806 21.54508,-43.91572 32.31717,-65.87436 25.99745,10.43245 51.9936,20.86378 77.99014,31.29482 -13.08951,-24.76627 -26.17894,-49.5321 -39.26884,-74.29916 20.71441,-13.00334 41.42784,-26.00663 62.14129,-39.01082 -25.3764,-4.01392 -50.75225,-8.02952 -76.12901,-12.04351 -6.63826,-24.81481 -13.27539,-49.62934 -19.91348,-74.44484 -10.77262,21.95936 -21.54518,43.9174 -32.31808,65.87519 -25.99738,-10.43187 -51.994,-20.86397 -77.99151,-31.297 z"
       inkscape:path-effect="#path-effect4707-8-0-4-6" />
    <g
       id="g1381">
      <path
         style="fill:none;fill-rule:evenodd;stroke:#040404;stroke-width:4.616;stroke-dasharray:none;stroke-opacity:1"
         d="m 441.00619,76.132753 c 8.81086,-3.922816 28.32034,16.180167 47.46127,18.392012 19.14092,2.211844 37.91297,-13.466304 45.28463,-8.620187 7.37166,4.846118 3.34283,30.215412 12.10402,49.892032 8.76119,19.67661 30.31102,33.65952 28.97971,42.38082 -1.3313,8.72129 -25.54304,12.18093 -36.70551,27.88529 -11.16248,15.70437 -9.27488,43.65173 -18.08571,47.57439 -8.81083,3.92267 -28.31975,-16.17909 -47.45884,-18.38947 -19.1391,-2.21038 -37.90681,13.47092 -45.27909,8.62421 -7.37229,-4.8467 -3.34884,-30.22113 -12.11161,-49.89935 -8.76277,-19.67822 -30.31155,-33.65913 -28.97968,-42.3799 1.33187,-8.72078 25.54403,-12.18059 36.70606,-27.88482 11.16203,-15.70422 9.2739,-43.652212 18.08475,-47.575027 z"
         id="path4705-1"
         inkscape:original-d="m 430.30713,52.106498 c 19.50992,20.10344 39.0194,40.206422 58.52841,60.308922 18.77326,-15.67831 37.54531,-31.356457 56.31726,-47.035376 -4.02852,25.370736 -8.05734,50.740036 -12.08673,76.109346 21.55116,13.98394 43.10098,27.96686 64.65079,41.9496 -24.21227,3.46023 -48.42401,6.91988 -72.63673,10.37914 1.88815,27.94893 3.77574,55.89629 5.6629,83.84374 -19.50926,-20.10209 -39.01818,-40.20385 -58.52797,-60.30649 -18.76797,15.68239 -37.53569,31.36368 -56.30423,47.04483 4.02407,-25.37498 8.04753,-50.74941 12.07059,-76.12481 -21.5492,-13.98101 -43.09799,-27.96191 -64.64768,-41.94357 24.21358,-3.45949 48.42574,-6.91931 72.63791,-10.37965 -1.88776,-27.94865 -3.77588,-55.896641 -5.66452,-83.845682 z"
         inkscape:path-effect="#path-effect4707-8" />
      <path
         style="fill:none;fill-rule:evenodd;stroke:#040404;stroke-width:4.61599;stroke-dasharray:none;stroke-opacity:1"
         d="m 629.68569,101.92401 c 8.81086,-3.922812 28.32035,16.18017 47.46127,18.39202 19.14092,2.21185 37.91297,-13.4663 45.28464,-8.62018 7.37166,4.84612 3.34283,30.21541 12.10402,49.89202 8.76118,19.67661 30.31102,33.65953 28.97971,42.38082 -1.3313,8.72129 -25.54305,12.18093 -36.70552,27.8853 -11.16247,15.70437 -9.27487,43.65173 -18.0857,47.57439 -8.81083,3.92266 -28.31976,-16.17909 -47.45885,-18.38947 -19.13909,-2.21039 -37.9068,13.47092 -45.27909,8.62421 -7.37228,-4.8467 -3.34883,-30.22114 -12.1116,-49.89936 -8.76277,-19.67822 -30.31156,-33.65913 -28.97969,-42.3799 1.33187,-8.72077 25.54404,-12.18058 36.70607,-27.88481 11.16202,-15.70422 9.27389,-43.65222 18.08474,-47.57504 z"
         id="path4705-1-3"
         inkscape:original-d="m 618.98663,77.897763 c 19.50992,20.103437 39.0194,40.206427 58.52842,60.308917 18.77325,-15.6783 37.5453,-31.35645 56.31726,-47.03537 -4.02853,25.37074 -8.05735,50.74003 -12.08673,76.10934 21.55115,13.98394 43.10098,27.96687 64.65078,41.94961 -24.21226,3.46022 -48.42401,6.91988 -72.63672,10.37913 1.88815,27.94894 3.77573,55.8963 5.6629,83.84376 -19.50926,-20.10211 -39.01818,-40.20387 -58.52798,-60.30651 -18.76797,15.68239 -37.53569,31.36368 -56.30422,47.04484 4.02407,-25.37498 8.04752,-50.74942 12.07059,-76.12481 -21.5492,-13.98101 -43.098,-27.96192 -64.64769,-41.94358 24.21358,-3.45949 48.42575,-6.91931 72.63791,-10.37963 -1.88776,-27.94866 -3.77588,-55.89666 -5.66452,-83.845697 z"
         inkscape:path-effect="#path-effect4707-8-0" />
      <path
         style="fill:none;fill-rule:evenodd;stroke:#040404;stroke-width:4.61599;stroke-dasharray:none;stroke-opacity:1"
         d="m 404.4065,174.79201 c 13.97523,-0.94252 41.92505,-2.82751 57.62956,8.33653 15.70452,11.16405 19.16412,35.37609 27.88504,36.70732 8.72093,1.33123 22.70231,-20.21753 42.37938,-28.97773 19.67707,-8.7602 45.04813,-4.73186 49.89448,-12.10383 4.84635,-7.37197 -10.83157,-26.14383 -8.61858,-45.28365 2.21299,-19.13981 22.31606,-38.645561 18.39318,-47.456284 -3.92287,-8.810724 -31.87168,-6.926261 -47.57378,-18.090144 -15.7021,-11.163883 -19.15636,-35.375431 -27.87803,-36.706598 -8.72167,-1.331167 -22.71034,20.218028 -42.38954,28.978407 -19.67919,8.760379 -45.04803,4.731292 -49.8936,12.103346 -4.84557,7.372055 10.83236,26.14412 8.61925,45.283513 -2.21311,19.13939 -22.3172,38.64548 -32.36952,48.39879 -10.05233,9.75332 -10.05306,9.75285 3.92216,8.81033 z"
         id="path4705-1-4"
         inkscape:original-d="m 390.43128,175.73453 c 27.95044,-1.88514 55.90026,-3.77014 83.84955,-5.65499 3.46042,24.21295 6.92005,48.42499 10.37901,72.63756 13.98224,-21.54998 27.96395,-43.09852 41.94509,-64.64775 25.37252,4.02922 50.7437,8.0568 76.11464,12.08524 -15.67793,-18.77254 -31.35582,-37.54442 -47.03467,-56.31665 20.10484,-19.50672 40.20781,-39.01257 60.31079,-58.518775 -27.949,1.884549 -55.8978,3.769029 -83.84764,5.653473 C 528.69421,56.760264 525.23987,32.548727 521.78509,8.3367288 507.79656,29.88677 493.80693,51.435339 479.81828,72.985566 454.44894,68.956884 429.0802,64.927207 403.70999,60.89802 c 15.67948,18.773054 31.35737,37.54515 47.03517,56.31786 -20.10419,19.50662 -40.20824,39.01275 -60.31315,58.51912 z"
         inkscape:path-effect="#path-effect4707-8-04" />
      <path
         style="fill:none;fill-rule:evenodd;stroke:#040404;stroke-width:4.61599;stroke-dasharray:none;stroke-opacity:1"
         d="m 561.88039,281.87662 c 13.97519,-0.94253 41.92514,-2.82757 57.62966,8.33647 15.70452,11.16404 19.16413,35.37612 27.88507,36.70738 8.72095,1.33126 22.70232,-20.21749 42.37932,-28.97769 19.677,-8.7602 45.04794,-4.73188 49.89434,-12.10388 4.84641,-7.37199 -10.8315,-26.14388 -8.61859,-45.28361 2.21291,-19.13973 22.31605,-38.64556 18.39315,-47.45629 -3.9229,-8.81072 -31.87158,-6.92619 -47.57376,-18.09009 -15.70218,-11.1639 -19.15645,-35.37546 -27.87808,-36.7067 -8.72163,-1.33125 -22.71037,20.21808 -42.38963,28.97842 -19.67926,8.76034 -45.04812,4.73124 -49.89369,12.10323 -4.84558,7.37199 10.83252,26.14433 8.61935,45.28368 -2.21318,19.13934 -22.31716,38.64531 -32.36958,48.39871 -10.05242,9.7534 -10.05275,9.75291 3.92244,8.81037 z"
         id="path4705-1-3-4"
         inkscape:original-d="m 547.9052,282.81916 c 27.95038,-1.88514 55.90033,-3.77011 83.84961,-5.65511 3.46035,24.213 6.91998,48.42507 10.37905,72.63772 13.98225,-21.55001 27.96397,-43.09854 41.94509,-64.64776 25.37239,4.0292 50.74345,8.05676 76.11452,12.08523 -15.67794,-18.77262 -31.35581,-37.54454 -47.03463,-56.31674 20.10463,-19.50656 40.20772,-39.01244 60.31069,-58.51877 -27.94909,1.88451 -55.89777,3.76913 -83.84773,5.65369 -3.45385,-24.21249 -6.90803,-48.42406 -10.36302,-72.63604 -13.98842,21.5499 -27.97814,43.09859 -41.96675,64.64878 -25.36949,-4.02873 -50.73826,-8.05841 -76.1083,-12.08758 15.67925,18.77295 31.35732,37.54532 47.03504,56.31791 -20.10407,19.50675 -40.20804,39.01273 -60.31324,58.51916 z"
         inkscape:path-effect="#path-effect4707-8-0-4" />
      <path
         style="fill:none;fill-rule:evenodd;stroke:#040404;stroke-width:4.61599;stroke-dasharray:none;stroke-opacity:1"
         d="m 583.76322,351.64728 c -8.59345,-4.37862 -5.24821,-32.19154 -15.57507,-48.45879 -10.32686,-16.26726 -34.32467,-20.98929 -35.19767,-29.76792 -0.873,-8.77862 21.37804,-21.61305 31.15605,-40.80466 9.77802,-19.19162 7.08305,-44.73872 14.69858,-49.19259 7.61553,-4.45388 25.54113,12.18497 44.77049,10.97675 19.22935,-1.20822 39.76061,-20.26297 48.35393,-15.88428 8.59333,4.37868 5.24869,32.19041 15.57551,48.45531 10.32682,16.2649 34.3244,20.98159 35.19733,29.76107 0.87292,8.77947 -21.37872,21.6213 -31.15699,40.81516 -9.77826,19.19385 -7.08238,44.73888 -14.69786,49.19199 -7.61549,4.45311 -25.54148,-12.18596 -44.77045,-10.97749 -19.22897,1.20847 -39.76039,20.26406 -48.35385,15.88545 z"
         id="path4705-1-7"
         inkscape:original-d="m 571.82446,375.08222 c 3.34529,-27.81356 6.69055,-55.62648 10.0357,-83.43874 -23.99874,-4.72289 -47.99656,-9.44492 -71.99494,-14.16641 22.25199,-12.83559 44.50304,-25.67 66.75447,-38.50404 -2.69499,-25.54876 -5.38998,-51.09585 -8.08507,-76.64283 17.92636,16.63887 35.85196,33.27773 53.77786,49.91753 20.53216,-19.05621 41.06343,-38.11095 61.59508,-57.16547 -3.34472,27.81221 -6.68935,55.62394 -10.03413,83.43688 23.99856,4.71621 47.99614,9.43291 71.99408,14.15034 -22.25249,12.84169 -44.50413,25.68353 -66.75632,38.52629 2.69606,25.5454 5.39195,51.09043 8.08782,76.63664 -17.92662,-16.64037 -35.85262,-33.27943 -53.779,-49.91816 -20.5322,19.05574 -41.06363,38.11132 -61.59555,57.16797 z"
         inkscape:path-effect="#path-effect4707-8-7" />
      <path
         style="fill:none;fill-rule:evenodd;stroke:#040404;stroke-width:4.61599;stroke-dasharray:none;stroke-opacity:1"
         d="m 485.06695,188.7848 c -8.59345,-4.37861 -5.24821,-32.19153 -15.57506,-48.45879 -10.32685,-16.26727 -34.32469,-20.98931 -35.1977,-29.76793 -0.873,-8.77861 21.37807,-21.61303 31.15607,-40.804646 9.77801,-19.191617 7.08302,-44.738752 14.69856,-49.192601 7.61553,-4.453849 25.54113,12.184996 44.77049,10.976782 19.22936,-1.208214 39.76064,-20.262992 48.35396,-15.884319 8.59332,4.378672 5.24867,32.190426 15.57552,48.455329 10.32684,16.264903 34.3244,20.981584 35.19732,29.761054 0.87292,8.779471 -21.37877,21.621321 -31.15702,40.815181 -9.77825,19.19387 -7.08236,44.73889 -14.69785,49.19198 -7.61549,4.45309 -25.54146,-12.18595 -44.77044,-10.97748 -19.22897,1.20847 -39.76039,20.26404 -48.35385,15.88544 z"
         id="path4705-1-3-5"
         inkscape:original-d="m 473.12818,212.21974 c 3.34531,-27.81355 6.69055,-55.62647 10.03572,-83.43875 -23.99874,-4.72288 -47.99658,-9.44492 -71.99497,-14.16642 22.252,-12.83556 44.50306,-25.66999 66.75449,-38.503988 C 475.2284,50.561803 472.53344,25.014665 469.83832,-0.53225919 487.7647,16.106607 505.6903,32.745451 523.6162,49.385277 544.14836,30.329069 564.67965,11.274296 585.21129,-7.7802021 581.86658,20.031967 578.52194,47.843722 575.17715,75.656664 c 23.99861,4.716222 47.99616,9.432917 71.9941,14.150326 -22.25249,12.8417 -44.50416,25.68357 -66.75635,38.52629 2.69604,25.54544 5.39194,51.09046 8.08784,76.63664 -17.92665,-16.64035 -35.85263,-33.27939 -53.779,-49.91813 -20.53222,19.05571 -41.06362,38.1113 -61.59556,57.16795 z"
         inkscape:path-effect="#path-effect4707-8-0-6" />
      <path
         style="fill:none;fill-rule:evenodd;stroke:#040404;stroke-width:4.61599;stroke-dasharray:none;stroke-opacity:1"
         d="m 683.46881,318.0023 c -9.52736,-10.26763 -28.58168,-30.80246 -29.78876,-50.03293 -1.20707,-19.23046 15.432,-37.15619 10.97831,-44.7714 -4.4537,-7.6152 -29.99899,-4.91971 -49.19012,-14.6987 -19.19113,-9.77899 -32.02705,-32.03113 -40.80605,-31.1581 -8.77901,0.87304 -13.50105,24.87055 -29.76817,35.19581 -16.26711,10.32526 -44.07718,6.97761 -48.45566,15.57102 -4.37848,8.59342 14.67478,29.12779 15.88046,48.35627 1.20568,19.22849 -15.43638,37.14977 -10.98216,44.76552 4.45421,7.61574 30.0044,4.92563 49.19703,14.70615 19.19262,9.78053 32.02655,32.03138 40.80514,31.15772 8.77858,-0.87365 13.50078,-24.87134 29.76763,-35.19624 16.26685,-10.32489 44.07783,-6.97666 57.98373,-5.30249 13.9059,1.67416 13.90598,1.675 4.37862,-8.59263 z"
         id="path4705-1-4-9"
         inkscape:original-d="m 692.99617,328.26993 c -19.05479,-20.5352 -38.10914,-41.07 -57.16299,-61.60451 16.63929,-17.92699 33.27835,-35.85273 49.91826,-53.77831 -25.54679,2.69559 -51.09212,5.39069 -76.63761,8.08668 -12.83617,-22.25383 -25.67277,-44.50557 -38.5085,-66.75768 -4.72259,23.99801 -9.44466,47.99552 -14.1664,71.99402 -27.81196,-3.34842 -55.62204,-6.69593 -83.43244,-10.04323 19.05344,20.53447 38.10671,41.06883 57.1606,61.60401 -16.64298,17.92149 -33.28499,35.84282 -49.92708,53.76481 25.5508,-2.69078 51.10111,-5.37971 76.65214,-8.07051 12.83458,22.25102 25.66796,44.50218 38.50273,66.75419 4.72196,-23.9995 9.44424,-47.99718 14.167,-71.99515 27.81147,3.34796 55.62245,6.69614 83.43421,10.04484 z"
         inkscape:path-effect="#path-effect4707-8-04-3" />
      <path
         style="fill:none;fill-rule:evenodd;stroke:#040404;stroke-width:4.61599;stroke-dasharray:none;stroke-opacity:1"
         d="m 667.58764,128.23157 c -9.52737,-10.26761 -28.58178,-30.802506 -29.78888,-50.032959 -1.20709,-19.230453 15.43205,-37.156267 10.97837,-44.77149 -4.45369,-7.615222 -29.99901,-4.919722 -49.19009,-14.698657 -19.19107,-9.7789355 -32.02691,-32.030939 -40.80597,-31.157967 -8.77906,0.872973 -13.50114,24.870549 -29.76813,35.195804 -16.26699,10.325255 -44.0772,6.977608 -48.45565,15.571039 -4.37846,8.593431 14.67476,29.127675 15.88049,48.35623 1.20573,19.22856 -15.43634,37.14986 -10.98222,44.76561 4.45412,7.61576 30.0045,4.92562 49.19713,14.70622 19.19263,9.7806 32.02655,32.03146 40.80509,31.15785 8.77854,-0.87362 13.50082,-24.87159 29.76768,-35.19641 16.26686,-10.32482 44.07769,-6.9766 57.98371,-5.30241 13.90602,1.67418 13.90583,1.67476 4.37847,-8.59286 z"
         id="path4705-1-3-4-6"
         inkscape:original-d="m 677.115,138.49919 c -19.05476,-20.5352 -38.10915,-41.07012 -57.16311,-61.604537 16.63933,-17.926909 33.27848,-35.852719 49.91833,-53.778407 -25.54678,2.69561 -51.09215,5.390679 -76.63762,8.086673 -12.8361,-22.2536982 -25.67259,-44.505323 -38.50841,-66.757588 -4.72262,23.998053 -9.44473,47.995622 -14.16648,71.99406 -27.8117,-3.348346 -55.62191,-6.695942 -83.43237,-10.043154 19.05345,20.534573 38.10675,41.068744 57.16081,61.603963 -16.64306,17.92154 -33.28519,35.84279 -49.92712,53.7649 25.55059,-2.69072 51.10109,-5.37972 76.65207,-8.0705 12.83462,22.25117 25.66802,44.50233 38.50269,66.75422 4.722,-23.99929 9.44438,-47.99725 14.16709,-71.99509 27.8115,3.34779 55.62233,6.69602 83.43431,10.04488 z"
         inkscape:path-effect="#path-effect4707-8-0-4-1" />
      <path
         style="fill:none;fill-rule:evenodd;stroke:#040404;stroke-width:4.61599;stroke-dasharray:none;stroke-opacity:1"
         d="m 616.80036,15.192311 c 7.16738,6.453562 -3.26239,32.452976 2.5023,50.838719 5.7647,18.385744 27.72266,29.157982 26.29383,37.86343 -1.42883,8.70544 -26.24349,15.34354 -40.65547,31.35049 -14.41198,16.00694 -18.4209,41.38106 -26.92969,43.71212 -8.50878,2.33107 -21.51713,-18.38031 -40.40397,-22.19019 -18.88683,-3.80987 -43.65027,9.28174 -50.81749,2.82814 -7.16722,-6.4536 3.26165,-32.45201 -2.50364,-50.83548 -5.76529,-18.383471 -27.72437,-29.150461 -26.29527,-37.856716 1.42911,-8.706255 26.24629,-15.351366 40.65911,-31.360408 14.41281,-16.009042 18.42032,-41.3813984 26.92886,-43.7117273 8.50854,-2.330329 21.51721,18.3813453 40.40375,22.1908853 18.88653,3.809541 43.65031,-9.282825 50.81768,-2.829263 z"
         id="path4705-1-8"
         inkscape:original-d="M 634.39774,-4.3541292 C 623.96773,21.645871 613.53797,47.645288 603.10845,73.644076 c 21.95861,10.773299 43.91659,21.545514 65.87523,32.317364 -24.81588,6.63898 -49.63054,13.27709 -74.44545,19.91469 -4.00932,25.37574 -8.01826,50.74986 -12.02702,76.12388 -13.00908,-20.71161 -26.01744,-41.42298 -39.02582,-62.13537 -24.76466,13.09275 -49.5281,26.18435 -74.29178,39.27561 10.42904,-25.99883 20.85792,-51.99724 31.28724,-77.99679 -21.96019,-10.76681 -43.91927,-21.533814 -65.87858,-32.301617 24.81793,-6.644772 49.63512,-13.289875 74.45304,-19.935729 4.00743,-25.372762 8.01495,-50.7451172 12.02277,-76.118578 13.00896,20.7130959 26.01763,41.424771 39.02678,62.136242 24.76454,-13.092295 49.52833,-26.1846472 74.29288,-39.2779072 z"
         inkscape:path-effect="#path-effect4707-8-00" />
      <path
         style="fill:none;fill-rule:evenodd;stroke:#040404;stroke-width:4.61599;stroke-dasharray:none;stroke-opacity:1"
         d="m 669.98173,198.04987 c 7.16737,6.45356 -3.2624,32.45297 2.50231,50.83872 5.7647,18.38575 27.72267,29.158 26.29385,37.86344 -1.42882,8.70544 -26.2435,15.34353 -40.65549,31.35048 -14.41199,16.00694 -18.42091,41.38106 -26.9297,43.71212 -8.50879,2.33106 -21.51714,-18.38032 -40.40397,-22.19019 -18.88684,-3.80987 -43.65025,9.28174 -50.81747,2.82813 -7.16722,-6.45361 3.26165,-32.45201 -2.50365,-50.83548 -5.76529,-18.38348 -27.72439,-29.15047 -26.29527,-37.85672 1.42912,-8.70625 26.24627,-15.35136 40.65909,-31.3604 14.41281,-16.00904 18.42033,-41.38139 26.92887,-43.71172 8.50855,-2.33033 21.51722,18.38135 40.40375,22.19088 18.88654,3.80953 43.65031,-9.28283 50.81768,-2.82926 z"
         id="path4705-1-3-7"
         inkscape:original-d="m 687.5791,178.50343 c -10.42999,26.00001 -20.85976,51.99941 -31.28928,77.99819 21.95863,10.77331 43.91661,21.54554 65.87524,32.3174 -24.81586,6.63895 -49.63053,13.27706 -74.44546,19.91467 -4.00931,25.37574 -8.01824,50.74986 -12.02702,76.12388 -13.00909,-20.71162 -26.01745,-41.42299 -39.02583,-62.13537 -24.76466,13.09274 -49.52807,26.18436 -74.29177,39.27563 10.42905,-25.99887 20.85794,-51.99726 31.28726,-77.99682 -21.96021,-10.76681 -43.9193,-21.53381 -65.87859,-32.30161 24.81794,-6.64478 49.6351,-13.28988 74.45302,-19.93574 4.00745,-25.37275 8.01495,-50.7451 12.02278,-76.11858 13.00896,20.71312 26.01764,41.42479 39.02677,62.13625 24.76457,-13.09229 49.52835,-26.18464 74.29288,-39.2779 z"
         inkscape:path-effect="#path-effect4707-8-0-46" />
      <path
         style="fill:none;fill-rule:evenodd;stroke:#040404;stroke-width:4.61599;stroke-dasharray:none;stroke-opacity:1"
         d="m 511.7842,21.885166 c 6.54527,12.383643 19.63552,37.150374 15.82426,56.037994 -3.81127,18.887619 -24.52291,31.89604 -22.19193,40.40446 2.33098,8.50843 27.70349,12.51638 43.70971,26.92918 16.00622,14.4128 22.6455,39.22891 31.35131,40.65781 8.70582,1.4289 19.47798,-20.52879 37.86318,-26.29199 18.38521,-5.76319 44.38124,4.66817 50.83465,-2.4992 6.45342,-7.16738 -6.63591,-31.93337 -2.82381,-50.81872 3.81209,-18.885353 24.52546,-31.888705 22.19412,-40.397782 C 686.21434,57.397841 660.83847,53.383409 644.83121,38.96873 628.82396,24.55405 622.18629,-0.26029295 613.48071,-1.6884602 604.77513,-3.1166274 594.00278,18.841156 575.61793,24.604069 557.23308,30.366982 531.2363,19.934821 518.23756,14.718595 505.23881,9.5023698 505.23893,9.5015228 511.7842,21.885166 Z"
         id="path4705-1-4-2"
         inkscape:original-d="m 505.23893,9.5015228 c 13.09064,24.7672342 26.18089,49.5339652 39.27079,74.3002772 -20.71217,13.00955 -41.4238,26.01799 -62.13619,39.02606 25.37397,4.00825 50.74642,8.01659 76.11925,12.02413 6.63905,24.81778 13.27906,49.63369 19.9182,74.44969 10.77279,-21.95797 21.54499,-43.91565 32.3171,-65.87435 25.99766,10.43259 51.99374,20.86383 77.99017,31.29493 -13.0895,-24.76619 -26.17885,-49.53217 -39.26861,-74.29916 20.7143,-13.0033 41.42764,-26.006711 62.1412,-39.010728 C 686.21425,57.398414 660.83856,53.382835 635.46175,49.368843 628.82351,24.55417 622.18641,-0.26032619 615.54825,-25.075996 604.77561,-3.1163912 594.00324,18.841379 583.23026,40.799308 557.23296,30.367276 531.23617,19.935157 505.23881,9.5023698 Z"
         inkscape:path-effect="#path-effect4707-8-04-2" />
      <path
         style="fill:none;fill-rule:evenodd;stroke:#040404;stroke-width:4.61599;stroke-dasharray:none;stroke-opacity:1"
         d="m 423.16983,257.6692 c 0.5048,-9.63145 27.27378,-17.88796 37.93435,-33.9385 10.66058,-16.05055 5.21359,-39.89426 12.87818,-44.26238 7.66459,-4.36812 28.43973,10.739 49.94922,11.86573 21.50948,1.12674 43.75178,-11.72618 50.91811,-6.58062 7.16634,5.14557 -0.74301,28.28906 8.18203,45.36452 8.92504,17.07546 34.68324,28.08143 34.17833,37.7128 -0.5049,9.63137 -27.27255,17.88793 -37.93099,33.93749 -10.65843,16.04956 -5.20664,39.89088 -12.87205,44.25927 -7.6654,4.36839 -28.44755,-10.73625 -49.95918,-11.8623 -21.51164,-1.12606 -43.75167,11.72686 -50.91729,6.58102 -7.16561,-5.14585 0.74378,-28.28977 -8.18135,-45.36479 -8.92512,-17.07501 -34.68415,-28.08079 -34.17936,-37.71224 z"
         id="path4705-1-7-2"
         inkscape:original-d="m 396.90502,256.29444 c 26.7696,-8.25671 53.53859,-16.5132 80.30697,-24.76951 -5.44661,-23.84492 -10.8936,-47.68863 -16.34132,-71.53267 20.77659,15.10752 41.55173,30.21464 62.32668,45.32226 22.24378,-12.85361 44.48607,-25.70654 66.7282,-38.55951 -7.90905,23.14415 -15.8184,46.28764 -23.7285,69.43178 25.75989,11.00621 51.51808,22.01219 77.27624,33.01862 -26.76814,8.25671 -53.5358,16.51325 -80.30464,24.7702 5.45261,23.84205 10.90439,47.68337 16.35566,71.52532 -20.78238,-15.10547 -41.56453,-30.21011 -62.34778,-45.31487 -22.24027,12.85321 -44.4803,25.70614 -66.72142,38.55952 7.91031,-23.14503 15.81968,-46.28896 23.72861,-69.4331 -25.75948,-11.00645 -51.51852,-22.01222 -77.2787,-33.01804 z"
         inkscape:path-effect="#path-effect4707-8-7-7" />
      <path
         style="fill:none;fill-rule:evenodd;stroke:#040404;stroke-width:4.61599;stroke-dasharray:none;stroke-opacity:1"
         d="m 531.80873,101.26353 c 0.50478,-9.63146 27.27377,-17.887965 37.93435,-33.938503 10.66057,-16.050538 5.21358,-39.894276 12.87816,-44.26239 7.66458,-4.368115 28.43972,10.739026 49.94921,11.865743 21.50949,1.126718 43.75181,-11.726235 50.91812,-6.580644 7.16631,5.145591 -0.74303,28.28908 8.18202,45.364544 8.92505,17.075464 34.68328,28.08144 34.17838,37.7128 -0.5049,9.63135 -27.2726,17.88792 -37.93103,33.9375 -10.65843,16.04958 -5.20664,39.89088 -12.87204,44.25927 -7.66539,4.36839 -28.44757,-10.73629 -49.95922,-11.86232 -21.51164,-1.12604 -43.75166,11.72688 -50.91726,6.58103 -7.1656,-5.14586 0.74378,-28.28978 -8.18134,-45.36479 -8.92512,-17.07501 -34.68413,-28.08078 -34.17935,-37.71224 z"
         id="path4705-1-3-5-9"
         inkscape:original-d="M 505.54389,99.88877 C 532.31351,91.63206 559.0825,83.375569 585.85088,75.119248 580.40428,51.274345 574.95727,27.430611 569.50956,3.5865688 590.28613,18.694097 611.06129,33.801214 631.8362,48.908871 654.08,36.055206 676.32234,23.202291 698.5644,10.349292 c -7.90903,23.144204 -15.81836,46.287696 -23.72848,69.431834 25.75989,11.006224 51.51812,22.012204 77.27624,33.018604 -26.76809,8.25671 -53.53579,16.51327 -80.30464,24.7702 5.45263,23.84208 10.90441,47.68339 16.35568,71.52536 -20.78236,-15.1055 -41.56457,-30.21015 -62.34777,-45.31493 -22.24033,12.85323 -44.48035,25.70616 -66.72143,38.55955 7.91029,-23.14505 15.81966,-46.28897 23.7286,-69.43311 -25.75947,-11.00644 -51.51848,-22.01221 -77.27871,-33.01803 z"
         inkscape:path-effect="#path-effect4707-8-0-6-5" />
      <path
         style="fill:none;fill-rule:evenodd;stroke:#040404;stroke-width:4.61599;stroke-dasharray:none;stroke-opacity:1"
         d="m 494.45997,335.07014 c 5.50483,-12.8799 16.51423,-38.63914 33.59118,-47.5636 17.07694,-8.92445 40.22063,-1.01496 45.36599,-8.181 5.14535,-7.16604 -7.70732,-29.40645 -6.5795,-50.9159 1.12781,-21.50946 16.23531,-42.28641 11.86701,-49.95134 -4.3683,-7.66493 -28.21174,-2.21805 -44.26076,-12.87913 -16.04902,-10.66109 -24.30217,-37.42847 -33.93353,-37.93316 -9.63136,-0.50469 -20.64079,25.25343 -37.71649,34.1758 -17.0757,8.92238 -40.21654,1.00834 -45.36218,8.17507 -5.14564,7.16673 7.7041,29.41382 6.57549,50.92525 -1.1286,21.51143 -16.23574,42.28605 -11.86705,49.95034 4.3687,7.66428 28.21236,2.21749 44.26094,12.87848 16.04859,10.66099 24.30158,37.42945 28.42819,50.81406 4.12661,13.38462 4.12589,13.38504 9.63071,0.50513 z"
         id="path4705-1-4-9-9"
         inkscape:original-d="m 488.95515,347.95005 c 11.00956,-25.75985 22.01892,-51.51911 33.02824,-77.2778 23.14493,7.90917 46.28862,15.81866 69.43253,23.72897 -12.85337,-22.24176 -25.7057,-44.48236 -38.55891,-66.72278 15.10896,-20.77788 30.21581,-41.5553 45.32338,-62.33208 -23.84414,5.44657 -47.68759,10.89343 -71.5318,16.34097 -8.25321,-26.76941 -16.5065,-53.53675 -24.7601,-80.30427 -11.00943,25.75829 -22.01885,51.51641 -33.02875,77.27542 -23.1414,-7.9148 -46.28226,-15.82877 -69.42376,-23.74255 12.85059,22.24738 25.69928,44.49507 38.55,66.74265 -15.10701,20.77526 -30.21467,41.54951 -45.3225,62.32535 23.84522,-5.44773 47.6889,-10.89445 71.53307,-16.34085 8.25342,26.76876 16.50645,53.53721 24.75932,80.30655 z"
         inkscape:path-effect="#path-effect4707-8-04-3-6" />
      <path
         style="fill:none;fill-rule:evenodd;stroke:#040404;stroke-width:4.61599;stroke-dasharray:none;stroke-opacity:1"
         d="m 661.3647,243.37527 c 5.50481,-12.87991 16.51424,-38.63928 33.59116,-47.56374 17.07692,-8.92446 40.22071,-1.01494 45.36609,-8.18097 5.14538,-7.16602 -7.7073,-29.4065 -6.57952,-50.91587 1.12778,-21.50936 16.2352,-42.286191 11.86693,-49.951191 -4.36828,-7.665 -28.21178,-2.218143 -44.26075,-12.879124 -16.04898,-10.66098 -24.30218,-37.428468 -33.93354,-37.933124 -9.63137,-0.504657 -20.6407,25.253368 -37.71645,34.175808 -17.07575,8.92244 -40.21661,1.008399 -45.36229,8.17505 -5.14568,7.166652 7.70415,29.413921 6.57549,50.925381 -1.12867,21.51146 -16.23583,42.28609 -11.86719,49.95035 4.36864,7.66425 28.21261,2.21742 44.26112,12.87845 16.04851,10.66102 24.30145,37.42933 28.42809,50.81407 4.12665,13.38474 4.12605,13.38481 9.63086,0.50491 z"
         id="path4705-1-3-4-6-6"
         inkscape:original-d="m 655.85989,256.25517 c 11.00956,-25.75983 22.01903,-51.51919 33.02822,-77.27793 23.14487,7.90924 46.28866,15.81878 69.43262,23.729 -12.85337,-22.24172 -25.70567,-44.48242 -38.55886,-66.72281 15.10884,-20.77774 30.21564,-41.55502 45.3233,-62.331922 C 741.24098,79.098051 717.39747,84.54489 693.5533,89.99239 685.30012,63.223245 677.04687,36.455773 668.79317,9.6882128 657.78365,35.446574 646.77442,61.204639 635.76455,86.963819 612.62306,79.048957 589.48222,71.134845 566.34068,63.221256 c 12.85046,22.247223 25.69931,44.495054 38.54997,66.742614 -15.10713,20.77535 -30.21479,41.54962 -45.32255,62.32533 23.84505,-5.44762 47.68904,-10.89438 71.53306,-16.34076 8.25359,26.76872 16.50651,53.53703 24.75933,80.30666 z"
         inkscape:path-effect="#path-effect4707-8-0-4-1-9" />
    </g>
  </g>
</svg>
