<?xml version="1.0" encoding="UTF-8" standalone="no"?>
<!-- Created with Inkscape (http://www.inkscape.org/) -->

<svg
   width="512.0px"
   height="512.0px"
   viewBox="0 0 512.0 512.0"
   version="1.1"
   id="SVGRoot"
   sodipodi:docname="rails.svg"
   xml:space="preserve"
   inkscape:version="1.2.2 (b0a8486541, 2022-12-01)"
   xmlns:inkscape="http://www.inkscape.org/namespaces/inkscape"
   xmlns:sodipodi="http://sodipodi.sourceforge.net/DTD/sodipodi-0.dtd"
   xmlns:xlink="http://www.w3.org/1999/xlink"
   xmlns="http://www.w3.org/2000/svg"
   xmlns:svg="http://www.w3.org/2000/svg"><sodipodi:namedview
     id="namedview6730"
     pagecolor="#505050"
     bordercolor="#eeeeee"
     borderopacity="1"
     inkscape:showpageshadow="0"
     inkscape:pageopacity="0"
     inkscape:pagecheckerboard="0"
     inkscape:deskcolor="#505050"
     inkscape:document-units="px"
     showgrid="true"
     inkscape:zoom="1.0442942"
     inkscape:cx="106.77068"
     inkscape:cy="281.52986"
     inkscape:window-width="1920"
     inkscape:window-height="1011"
     inkscape:window-x="0"
     inkscape:window-y="32"
     inkscape:window-maximized="1"
     inkscape:current-layer="layer3"><inkscape:grid
       type="xygrid"
       id="grid6853"
       enabled="false" /></sodipodi:namedview><defs
     id="defs6725"><linearGradient
       inkscape:collect="always"
       id="linearGradient51358"><stop
         style="stop-color:#662e8e;stop-opacity:1;"
         offset="0.09205312"
         id="stop51354" /><stop
         style="stop-color:#441f62;stop-opacity:1;"
         offset="1"
         id="stop51356" /></linearGradient><linearGradient
       id="linearGradient15926"
       inkscape:swatch="solid"><stop
         style="stop-color:#9446da;stop-opacity:1;"
         offset="0"
         id="stop15924" /></linearGradient><inkscape:path-effect
       effect="bspline"
       id="path-effect7374"
       is_visible="true"
       lpeversion="1"
       weight="33.333333"
       steps="2"
       helper_size="0"
       apply_no_weight="true"
       apply_with_weight="true"
       only_selected="false" /><inkscape:path-effect
       effect="bspline"
       id="path-effect7370"
       is_visible="true"
       lpeversion="1"
       weight="33.333333"
       steps="2"
       helper_size="0"
       apply_no_weight="true"
       apply_with_weight="true"
       only_selected="false" /><inkscape:path-effect
       effect="bspline"
       id="path-effect7366"
       is_visible="true"
       lpeversion="1"
       weight="33.333333"
       steps="2"
       helper_size="0"
       apply_no_weight="true"
       apply_with_weight="true"
       only_selected="false" /><inkscape:path-effect
       effect="bspline"
       id="path-effect7362"
       is_visible="true"
       lpeversion="1"
       weight="33.333333"
       steps="2"
       helper_size="0"
       apply_no_weight="true"
       apply_with_weight="true"
       only_selected="false" /><inkscape:path-effect
       effect="bspline"
       id="path-effect7354"
       is_visible="true"
       lpeversion="1"
       weight="33.333333"
       steps="2"
       helper_size="0"
       apply_no_weight="true"
       apply_with_weight="true"
       only_selected="false" /><inkscape:path-effect
       effect="bspline"
       id="path-effect7350"
       is_visible="true"
       lpeversion="1"
       weight="33.333333"
       steps="2"
       helper_size="0"
       apply_no_weight="true"
       apply_with_weight="true"
       only_selected="false" /><inkscape:path-effect
       effect="bspline"
       id="path-effect7342"
       is_visible="true"
       lpeversion="1"
       weight="33.333333"
       steps="2"
       helper_size="0"
       apply_no_weight="true"
       apply_with_weight="true"
       only_selected="false" /><inkscape:path-effect
       effect="bspline"
       id="path-effect7338"
       is_visible="true"
       lpeversion="1"
       weight="33.333333"
       steps="2"
       helper_size="0"
       apply_no_weight="true"
       apply_with_weight="true"
       only_selected="false" /><inkscape:path-effect
       effect="bspline"
       id="path-effect7334"
       is_visible="true"
       lpeversion="1"
       weight="33.333333"
       steps="2"
       helper_size="0"
       apply_no_weight="true"
       apply_with_weight="true"
       only_selected="false" /><inkscape:path-effect
       effect="bspline"
       id="path-effect7330"
       is_visible="true"
       lpeversion="1"
       weight="33.333333"
       steps="2"
       helper_size="0"
       apply_no_weight="true"
       apply_with_weight="true"
       only_selected="false" /><inkscape:path-effect
       effect="bspline"
       id="path-effect7326"
       is_visible="true"
       lpeversion="1"
       weight="33.333333"
       steps="2"
       helper_size="0"
       apply_no_weight="true"
       apply_with_weight="true"
       only_selected="false" /><inkscape:path-effect
       effect="bspline"
       id="path-effect7322"
       is_visible="true"
       lpeversion="1"
       weight="33.333333"
       steps="2"
       helper_size="0"
       apply_no_weight="true"
       apply_with_weight="true"
       only_selected="false" /><inkscape:path-effect
       effect="bspline"
       id="path-effect7318"
       is_visible="true"
       lpeversion="1"
       weight="33.333333"
       steps="2"
       helper_size="0"
       apply_no_weight="true"
       apply_with_weight="true"
       only_selected="false" /><linearGradient
       inkscape:collect="always"
       xlink:href="#linearGradient51358"
       id="linearGradient51360"
       x1="56.030884"
       y1="463.47842"
       x2="175.25756"
       y2="463.47842"
       gradientUnits="userSpaceOnUse"
       gradientTransform="matrix(2.9309154,0,0,2.9309154,-109.93185,-1143.8656)" /></defs><g
     inkscape:label="Layer 1"
     inkscape:groupmode="layer"
     id="layer1"
     style="display:inline" /><g
     inkscape:groupmode="layer"
     id="layer2"
     inkscape:label="Layer 2"
     style="display:inline"><g
       id="g49793"
       transform="matrix(2.9309154,0,0,2.9309154,-109.93185,-1143.8656)"><path
         style="fill:#ffffff;stroke:#ffffff;stroke-width:0.340913;stroke-linecap:round;stroke-linejoin:round;stroke-dasharray:none"
         d="m 55.892446,444.27464 c 0,22.51867 0,45.03695 0,67.5549"
         id="path7316"
         inkscape:path-effect="#path-effect7318"
         inkscape:original-d="m 55.892446,444.27464 c 3.44e-4,22.51867 3.44e-4,45.03695 0,67.5549" /><path
         style="fill:#ffffff;stroke:#ffffff;stroke-width:0.340913;stroke-linecap:round;stroke-linejoin:round;stroke-dasharray:none"
         d="m 193.81237,472.67832 c -45.97308,13.05034 -91.94638,26.10075 -137.919924,39.15122"
         id="path7320"
         inkscape:path-effect="#path-effect7322"
         inkscape:original-d="M 193.81237,472.67832 C 147.8394,485.72906 101.8661,498.77947 55.892446,511.82954" /><path
         style="fill:#ffffff;stroke:#ffffff;stroke-width:0.340913;stroke-linecap:round;stroke-linejoin:round;stroke-dasharray:none"
         d="m 193.48106,400.47005 c 0.11043,24.06976 0.22086,48.13918 0.33129,72.20827"
         id="path7324"
         inkscape:path-effect="#path-effect7326"
         inkscape:original-d="m 193.48106,400.47005 c 0.1108,24.06976 0.22121,48.13918 0.33129,72.20827" /><path
         style="fill:#ffffff;stroke:#ffffff;stroke-width:0.340913;stroke-linecap:round;stroke-linejoin:round;stroke-dasharray:none"
         d="M 55.892446,444.27464 C 101.75554,429.67304 147.6184,415.07151 193.48106,400.47005"
         id="path7328"
         inkscape:path-effect="#path-effect7330"
         inkscape:original-d="M 55.892446,444.27464 C 101.75566,429.67342 147.61853,415.07193 193.48106,400.47005" /><path
         style="fill:#ffffff;stroke:#ffffff;stroke-width:0.340913;stroke-linecap:round;stroke-linejoin:round;stroke-dasharray:none"
         d="M 55.892446,455.62415 C 101.77432,441.33316 147.65598,427.04223 193.53741,412.75138"
         id="path7332"
         inkscape:path-effect="#path-effect7334"
         inkscape:original-d="M 55.892446,455.62415 C 101.77445,441.33356 147.6561,427.04263 193.53741,412.75138"
         sodipodi:nodetypes="cc" /><path
         style="fill:#ffffff;stroke:#ffffff;stroke-width:0.340913;stroke-linecap:round;stroke-linejoin:round;stroke-dasharray:none"
         d="M 55.892446,499.95038 C 101.84561,486.41776 147.79853,472.88521 193.75123,459.35272"
         id="path7336"
         inkscape:path-effect="#path-effect7338"
         inkscape:original-d="M 55.892446,499.95038 C 101.84572,486.41813 147.79865,472.88563 193.75123,459.35272" /><path
         style="fill:#ffffff;stroke:#ffffff;stroke-width:0.340913;stroke-linecap:round;stroke-linejoin:round;stroke-dasharray:none"
         d="m 187.07453,414.76435 c -19.80037,21.34916 -39.60074,42.69831 -59.40106,64.04742"
         id="path7348"
         inkscape:path-effect="#path-effect7350"
         inkscape:original-d="m 187.07453,414.76435 c -19.80001,21.34949 -39.60037,42.69865 -59.40106,64.04742"
         sodipodi:nodetypes="cc" /><path
         style="fill:#ffffff;stroke:#ffffff;stroke-width:0.340913;stroke-linecap:round;stroke-linejoin:round;stroke-dasharray:none"
         d="m 74.885734,449.80037 c -0.140191,11.05556 -0.28038,22.11087 -0.420563,33.16577"
         id="path7352"
         inkscape:path-effect="#path-effect7354"
         inkscape:original-d="m 74.885734,449.80037 c -0.139179,11.05557 -0.279367,22.11088 -0.420563,33.16577"
         sodipodi:nodetypes="cc" /><path
         style="fill:#ffffff;stroke:#ffffff;stroke-width:0.340913;stroke-linecap:round;stroke-linejoin:round;stroke-dasharray:none"
         d="m 153.97314,446.42008 c -5.0816,5.46682 -10.16319,10.93363 -15.24475,16.4004"
         id="path7360"
         inkscape:path-effect="#path-effect7362"
         inkscape:original-d="m 153.97314,446.42008 c -5.08124,5.46715 -10.16282,10.93397 -15.24475,16.4004" /><path
         style="fill:#ffffff;stroke:#ffffff;stroke-width:0.340913;stroke-linecap:round;stroke-linejoin:round;stroke-dasharray:none"
         d="m 74.465157,482.96614 c 21.421294,-6.71529 42.842373,-13.43051 64.263233,-20.14566"
         id="path7364"
         inkscape:path-effect="#path-effect7366"
         inkscape:original-d="m 74.465157,482.96614 c 21.421419,-6.71489 42.842503,-13.43011 64.263233,-20.14566" /><path
         style="fill:#ffffff;stroke:#ffffff;stroke-width:0.340913;stroke-linecap:round;stroke-linejoin:round;stroke-dasharray:none"
         d="m 74.666309,470.57878 c 26.435831,-8.05297 52.871451,-16.10587 79.306831,-24.1587"
         id="path7368"
         inkscape:path-effect="#path-effect7370"
         inkscape:original-d="m 74.666309,470.57878 c 26.435951,-8.05257 52.871571,-16.10547 79.306831,-24.1587" /><path
         style="display:inline;fill:#ffffff;stroke:#ffffff;stroke-width:0.340913;stroke-linecap:round;stroke-linejoin:round;stroke-dasharray:none"
         d="m 74.75555,458.92911 c 33.7224,-10.71338 67.44459,-21.4267 101.16656,-32.13995"
         id="path7372"
         inkscape:path-effect="#path-effect7374"
         inkscape:original-d="m 74.75555,458.92911 c 33.72253,-10.71296 67.44471,-21.42632 101.16656,-32.13995"
         sodipodi:nodetypes="cc" /><path
         style="display:inline;fill:#ffffff;stroke:#ffffff;stroke-width:0.340913;stroke-linecap:round;stroke-linejoin:round;stroke-dasharray:none"
         d="m 132.26624,477.45925 c 20.05396,-21.45413 40.10793,-42.90827 60.16191,-64.36241"
         id="path7340"
         inkscape:path-effect="#path-effect7342"
         inkscape:original-d="m 132.26624,477.45925 c 20.05431,-21.4538 40.10828,-42.90794 60.16191,-64.36241"
         sodipodi:nodetypes="cc" /></g><path
       style="fill:#ffffff;fill-opacity:1;stroke:none;stroke-width:0.310026"
       d="m 266.78298,257.41115 c 0.61412,-0.65594 39.34341,-42.41853 86.06507,-92.80574 46.72169,-50.38724 85.21294,-91.842792 85.53613,-92.123482 0.54017,-0.46915 13.72967,-4.74256 13.95183,-4.5204 0.0537,0.0536 -39.28444,42.224262 -87.4181,93.712292 l -87.51575,93.61461 -5.37932,1.55013 c -2.95864,0.85258 -5.59919,1.59855 -5.86787,1.65767 -0.27755,0.061 -0.006,-0.40784 0.62801,-1.08508 z"
       id="path51277" /></g><g
     inkscape:groupmode="layer"
     id="layer3"
     inkscape:label="Layer 3"
     style="display:inline"><path
       style="fill:#441f62;fill-opacity:1;stroke:none;stroke-width:0.176205"
       d="m 280.8065,253.12099 c 0.5948,-0.61731 39.86972,-42.63228 87.27745,-93.3663 l 86.19588,-92.243702 1.16392,-0.396 c 0.6402,-0.21747 1.19054,-0.36882 1.22296,-0.33582 0.0446,0.039 0.72716,135.073192 0.6831,135.206172 -0.0147,0.0387 -176.48827,51.99889 -177.09625,52.13787 -0.49617,0.11636 -0.46239,0.0584 0.55285,-1.00164 z"
       id="path48642" /><path
       style="fill:#d2b4f2;fill-opacity:1;stroke:none;stroke-width:0.363246"
       d="m 108.90222,253.50669 c 0.1471,-9.77216 0.29375,-17.79226 0.32589,-17.82245 0.18502,-0.17381 230.35093,-70.17734 230.44105,-70.08721 0.0601,0.0601 -9.62826,10.58474 -21.5298,23.38797 l -21.63915,23.27862 -2.25071,0.73402 c -1.23787,0.4037 -43.23572,13.57673 -93.3285,29.27345 -50.09278,15.6967 -91.34969,28.64378 -91.68201,28.77133 -0.56063,0.21513 -0.58493,-1.0502 -0.33677,-17.53573 z"
       id="path51348" /><path
       style="fill:url(#linearGradient51360);fill-opacity:1;stroke:none;stroke-width:0.498889"
       d="M 54.325375,256.39658 54.451961,191.7021 80.39417,183.599 c 14.268217,-4.45669 26.59366,-8.25202 27.38991,-8.43403 l 1.4477,-0.33096 -0.3271,26.87154 c -0.17993,14.77935 -0.47363,36.72836 -0.6527,48.77559 -0.19408,13.05814 -0.14297,21.7935 0.12661,21.6303 0.24872,-0.15064 42.54594,-13.45078 93.99386,-29.55602 51.44788,-16.10523 94.04364,-29.65535 94.65723,-30.11137 0.61358,-0.45606 10.88448,-11.36199 22.82415,-24.23542 18.79728,-20.26731 23.16657,-25.19761 21.31801,-24.05514 -0.47695,0.29477 -231.3965,70.65971 -231.88691,70.65971 -0.33768,0 0.2088,-33.00129 0.55223,-33.34889 0.35683,-0.36118 293.70764,-93.4149 293.89592,-93.22662 0.15739,0.15739 -132.27839,143.34337 -138.17824,149.39439 -1.49834,1.53676 -6.69612,3.12339 -105.84044,32.30812 -57.34557,16.88061 -104.546135,30.79525 -104.890148,30.92143 -0.49975,0.18317 -0.600032,-12.77457 -0.498889,-64.46505 z"
       id="path51352" /><path
       style="fill:#d2b4f2;fill-opacity:1;stroke:none;stroke-width:0.46312"
       d="m 109.66385,187.84394 c 0.10452,-7.11577 0.33798,-13.08572 0.51882,-13.26656 0.49074,-0.49075 325.10975,-101.591482 325.80713,-101.470782 0.32967,0.0572 -6.3923,7.64168 -14.93773,16.85476 l -15.53714,16.751002 -2.89234,0.94375 c -1.59079,0.51904 -67.28899,21.38481 -145.99599,46.36835 -78.70703,24.98353 -144.01473,45.72444 -145.12823,46.09093 l -2.02453,0.66628 z"
       id="path52813" /><path
       style="fill:#222224;fill-opacity:1;stroke:none;stroke-width:0.417846"
       d="m 54.381827,338.60618 0.109148,-16.9724 201.354705,-59.2974 c 110.74511,-32.61359 201.39828,-59.24468 201.45158,-59.18023 0.0533,0.0645 0.16882,8.66572 0.25645,19.11391 l 0.15974,18.99667 -201.19336,57.13596 c -110.65636,31.42478 -201.430508,57.14497 -201.720358,57.15596 -0.417497,0.0147 -0.504317,-3.50658 -0.417846,-16.95247 z"
       id="path53302" /><path
       style="fill:#222224;fill-opacity:1;stroke:none;stroke-width:0.434426"
       d="m 54.281604,174.70881 v -16.2029 L 254.6611,94.701318 C 364.86981,59.608828 455.48048,30.809033 456.01805,30.701793 l 0.97748,-0.19491 v 17.555545 17.55554 l -2.28076,0.70541 c -1.25439,0.38797 -91.764,28.57906 -201.13242,62.646872 -109.36845,34.06785 -198.952737,61.94153 -199.076223,61.94153 -0.123479,0 -0.224537,-7.29133 -0.224537,-16.20292 z"
       id="path53373" /><text
       xml:space="preserve"
       style="font-style:italic;font-variant:normal;font-weight:normal;font-stretch:normal;font-size:128px;font-family:monospace;-inkscape-font-specification:'monospace Italic';text-align:center;letter-spacing:0px;word-spacing:0px;text-anchor:middle;fill:#030104;fill-opacity:1;fill-rule:evenodd;stroke:#ffffff;stroke-width:1;stroke-linecap:round;stroke-linejoin:round;stroke-dasharray:none;stroke-opacity:1"
       x="255.625"
       y="454.74835"
       id="text54947"><tspan
         sodipodi:role="line"
         id="tspan54945"
         x="255.625"
         y="454.74835"
         style="font-style:italic;font-variant:normal;font-weight:normal;font-stretch:normal;font-size:128px;font-family:OpenSymbol;-inkscape-font-specification:'OpenSymbol Italic';fill:#030104;fill-opacity:1;stroke:#ffffff;stroke-width:1;stroke-dasharray:none;stroke-opacity:1"
         dx="0"
         rotate="0 0 0 0 0 0">Rails</tspan></text></g></svg>
